
<svg fill="none" viewBox="0 0 195 24" xmlns="http://www.w3.org/2000/svg">
<g clip-path="url(#a)" fill="#000">
<path d="m156.75 6.8404h0.734v-1.1284c0-3.549 2.233-3.6154 2.233-3.6154h1.105s0.765 0.00781 0.765 0.76135v17.32c0 0.7613-0.765 0.7613-0.765 0.7613h-0.957v0.734h6.767v-0.734h-0.961s-0.765 0-0.765-0.7613v-17.32c0-0.75744 0.765-0.76135 0.765-0.76135h1.105s2.229 0.06638 2.229 3.6154v1.1284h0.734v-5.4778h-12.985v5.4778h-4e-3zm-1.683 14.099c-0.418 0-0.816-0.2733-1.058-2.8502-0.242-2.5768-0.465-5.5949-4.037-6.2938v-0.1835s4.404-0.4216 4.404-5.2279c0-4.4744-4.389-4.9702-6.544-5.0171v-0.00781h-6.075v0.73402h0.961s0.765 0.00781 0.765 0.76135v17.32c0 0.7613-0.765 0.7613-0.765 0.7613h-0.957v0.734h6.766v-0.734h-0.96s-0.766 0-0.766-0.7613v-8.0196h0.84c0.945 0 2.432 0.4061 2.721 3.4476s0.274 6.243 3.588 6.243c1.503 0 2.355-1.1674 2.355-1.1674l-0.527-0.3709s-0.289 0.6247-0.707 0.6247l-4e-3 0.0078zm-7.047-9.511h-1.222v-8.57c0-0.75744 0.765-0.76135 0.765-0.76135h0.269c2.437 0 3.069 2.1591 3.069 4.4158s-0.769 4.9155-2.881 4.9155zm-31.309-10.065h-6.228v0.73401h1.043s0.765 0.00781 0.765 0.76135v17.32c0 0.7613-0.765 0.7613-0.765 0.7613h-1.043v0.734h6.228c2.229 0 8.749-1.0932 8.749-10.159 0-9.0659-5.708-10.159-8.749-10.159v0.00781zm0 19.576h-0.336s-0.765 0-0.765-0.7613v-17.32c0-0.75744 0.765-0.76135 0.765-0.76135h0.336c2.698 0 5.282 2.0693 5.282 9.4212 0 7.3519-2.846 9.4212-5.282 9.4212zm-27.901-19.576-3.9395 15.004-3.959-15.004h-5.2709v0.73401h0.8902s0.7614 0.00781 0.7614 0.76135v17.32c0 0.7613-0.7614 0.7613-0.7614 0.7613h-0.8629v0.734h3.9864v-0.734h-0.8629s-0.7652 0-0.7652-0.7613v-17.16l4.9233 18.655h1.2611l4.5955-17.515v16.016c0 0.7613-0.7653 0.7613-0.7653 0.7613h-1.183v0.734h6.9224v-0.734h-0.8902s-0.7652 0-0.7652-0.7613v-17.316c0-0.75744 0.7652-0.76135 0.7652-0.76135h0.8902v-0.73401h-4.9741 0.0039zm97.527 0.73401h0.96v-0.73401h-6.766v0.73401h0.957s0.765 0.00781 0.765 0.76135v7.7345h-6.188v-7.7345c0-0.75744 0.765-0.76135 0.765-0.76135h0.956v-0.73401h-6.766v0.73401h0.957s0.765 0.00781 0.765 0.76135v17.32c0 0.7613-0.765 0.7613-0.765 0.7613h-0.957v0.734h6.766v-0.734h-0.956s-0.765 0-0.765-0.7613v-8.8512h6.188v8.8512c0 0.7613-0.765 0.7613-0.765 0.7613h-0.957v0.734h6.766v-0.734h-0.96s-0.765 0-0.765-0.7613v-17.32c0-0.75744 0.765-0.76135 0.765-0.76135zm-78.626 18.081-5.118-18.815h-1.273l-5.2633 18.815c-0.2147 0.7613-0.8355 0.7613-0.8355 0.7613h-0.6715v0.734h3.6622v-0.734h-0.9175c-0.7106 0-0.4997-0.7613-0.4997-0.7613l1.3704-4.9039h4.8959l1.332 4.9039s0.21 0.7613-0.695 0.7613h-1.09v0.734h6.759v-0.734h-0.727s-0.714 0-0.921-0.7613h-8e-3zm-9.3468-5.6379 2.2758-8.1367 2.214 8.1367h-4.4898zm40.633 5.6379-5.119-18.815h-1.273l-5.263 18.815c-0.215 0.7613-0.839 0.7613-0.839 0.7613h-0.672v0.734h3.663v-0.734h-0.918c-0.711 0-0.5-0.7613-0.5-0.7613l1.375-4.9039h4.896l1.335 4.9039s0.203 0.7613-0.699 0.7613h-1.089v0.734h6.758v-0.734h-0.726s-0.715 0-0.921-0.7613h-8e-3zm-9.343-5.6379 2.276-8.1367 2.214 8.1367h-4.49z"/>
<path d="m191.4 1.1557c-1.589 0-2.878 1.2923-2.878 2.8775 0 1.5852 1.293 2.8775 2.878 2.8775s2.877-1.2923 2.877-2.8775c0-1.5852-1.292-2.8775-2.877-2.8775zm0 5.2513c-1.308 0-2.37-1.062-2.37-2.3699 0-1.308 1.062-2.3699 2.37-2.3699s2.37 1.062 2.37 2.3699c0 1.308-1.062 2.3699-2.37 2.3699zm1.214-1.2338c-0.012-0.04685-0.019-0.12103-0.023-0.22255l-0.012-0.37091c-8e-3 -0.1796-0.043-0.30454-0.105-0.38653-0.04-0.05076-0.094-0.09761-0.157-0.13665 0.082-0.05857 0.153-0.12885 0.203-0.21084 0.075-0.11713 0.114-0.26549 0.114-0.44509 0-0.34749-0.145-0.58956-0.426-0.7184-0.144-0.06637-0.324-0.09761-0.543-0.09761h-1.327v2.9087h0.515v-1.1869h0.762c0.136 0 0.238 0.01561 0.296 0.04294 0.098 0.05076 0.153 0.14837 0.156 0.30454l0.024 0.46072c4e-3 0.11713 0.012 0.19131 0.019 0.23035 8e-3 0.04685 0.02 0.08199 0.036 0.11323l0.019 0.03514h0.57v-0.1757l-0.043-0.01952c-0.039-0.01562-0.066-0.05857-0.082-0.12494h4e-3zm-0.621-1.4134c-0.086 0.06247-0.211 0.0937-0.367 0.0937h-0.777v-0.8082h0.824c0.113 0 0.203 0.01562 0.266 0.05076 0.117 0.05856 0.171 0.17179 0.171 0.34358 0 0.16008-0.039 0.2694-0.121 0.32406l4e-3 -0.0039z"/>
<path d="m3.9511 23.984c-0.38653-0.1093-0.81601-0.2382-1.2884-0.3866 0.04294-0.1093 0.02733-0.203-0.04686-0.2889-0.07418-0.0859-0.23035-0.1405-0.46852-0.1601-0.32406-0.1952-0.61688-0.4372-0.88628-0.7262-0.2694-0.2889-0.48805-0.5739-0.65984-0.855-0.17179-0.2772-0.30063-0.5154-0.38653-0.7106-0.15227-0.3241-0.21864-0.5193-0.21083-0.5974 0.011713-0.0741 0.13275-0.1679 0.37091-0.2733 0.23426-0.1718 0.41386-0.2264 0.53099-0.16 0.11713 0.0663 0.26159 0.2811 0.43338 0.6442 0.27721 0.4958 0.75745 0.8706 1.4329 1.1283s1.4407 0.3709 2.2879 0.3397c0.84725-0.0312 1.6594-0.2186 2.4324-0.5661 0.79649-0.3241 1.2962-0.6599 1.4993-1.0152 0.20302-0.3553 0.12494-0.8121-0.24207-1.3704-0.06638-0.1718-0.14056-0.3123-0.22645-0.4177-0.0859-0.1055-0.22255-0.246-0.40215-0.4178-0.18351-0.1718-0.48024-0.4529-0.88629-0.8394-0.32406-0.1484-0.61688-0.289-0.88628-0.4178-0.2694-0.1289-0.55442-0.2694-0.85505-0.4178-0.34359-0.1718-0.75745-0.4255-1.2416-0.7574-0.48413-0.3319-0.94094-0.7028-1.3704-1.1128-0.42948-0.406-0.74183-0.7847-0.93314-1.1283-0.34358-0.3241-0.60127-0.7692-0.77306-1.3392s-0.23816-1.1752-0.19522-1.8233c0.042946-0.64424 0.20303-1.226 0.48414-1.7414 0.12885-0.30064 0.34749-0.67155 0.65984-1.1127 0.31234-0.44119 0.65983-0.88629 1.0464-1.3392 0.38653-0.45291 0.76135-0.85896 1.1284-1.226 0.367-0.367 0.66764-0.62469 0.9019-0.77306 0.17179-0.17179 0.4529-0.44119 0.83943-0.80429 0.01952-0.10542 0.0859-0.16008 0.19522-0.16008 0.10542-0.06637 0.34358-0.17179 0.71059-0.32406 0.36701-0.14836 0.76135-0.42948 1.1947-0.83943 1.4407-0.68717 2.612-1.1947 3.5139-1.5149 0.902-0.32016 1.6438-0.48414 2.2255-0.48414 0.5388 0.023426 1.0269 0.14446 1.4681 0.37091 0.4411 0.22645 0.8043 0.52318 1.0971 0.88628 0.2889 0.36701 0.4685 0.8043 0.531 1.3236 0.1483 0.51538 0.1054 1.1127-0.1289 1.7882-0.2381 0.67546-0.5856 1.3119-1.0463 1.9014-0.4608 0.58955-0.9605 1.0386-1.4993 1.3392-0.6013 0.25769-1.0034 0.37091-1.2104 0.33968-0.203-0.03124-0.2967-0.25379-0.2733-0.65984 0-0.17179 0.0586-0.37481 0.1757-0.61298 0.1172-0.23426 0.4451-0.65593 0.9839-1.2572 0.6872-1.0112 1.105-1.8155 1.2572-2.4168 0.1484-0.60127 0.0117-0.93313-0.4177-0.99951-0.1289-0.04295-0.3592-0.04295-0.695 0-0.3319 0.04295-0.6989 0.10151-1.0971 0.1757-0.3983 0.07418-0.7379 0.15227-1.0152 0.22645-0.2811 0.07418-0.4177 0.13275-0.4177 0.17569 0 0.12885-0.043 0.18351-0.1289 0.16008-0.0429 0-0.2264 0.0859-0.5466 0.25769-0.324 0.17179-0.7106 0.39824-1.1596 0.67545-0.45291 0.28111-0.90191 0.55832-1.3548 0.83943-0.4529 0.28112-0.83162 0.52319-1.144 0.72621-0.31235 0.20303-0.48024 0.32797-0.49976 0.37092-0.04295 0.23816-0.28892 0.4529-0.74182 0.64421-0.42948 0.25769-0.82382 0.63251-1.1752 1.1284-0.3553 0.49585-0.74573 1.1088-1.1752 1.8389-0.36701 0.49585-0.62469 1.0268-0.77306 1.5968-0.15227 0.5701-0.15227 1.0269 0 1.3705 0.10542 0.3435 0.44119 0.7847 0.99951 1.3235 0.55833 0.5388 1.2572 1.0542 2.0966 1.5461 0.73011 0.41 1.386 0.8121 1.9678 1.2104 0.58174 0.3982 1.0581 0.7809 1.4329 1.144 0.37482 0.367 0.62857 0.6871 0.75747 0.9682 0.2577 0.367 0.4451 0.738 0.5622 1.1128s0.1835 0.7379 0.1952 1.0815-0.0273 0.6559-0.1132 0.9331c-0.1523 0.3436-0.4139 0.6989-0.7887 1.0659-0.3748 0.3631-0.69496 0.5388-0.95265 0.5154-0.23816 0.0664-0.41386 0.1405-0.53099 0.2264s-0.25378 0.1601-0.40215 0.2265c-0.15226 0.0859-0.46852 0.1718-0.95266 0.2577-0.48413 0.0859-1.0151 0.1444-1.5969 0.1757-0.58175 0.0312-1.1166 0.0351-1.6125 0.0156l-0.0039-0.0039z"/>
<path d="m18.878 21.244c-0.4529 0.3865-0.9722 0.613-1.5618 0.6755-0.5895 0.0663-1.1674-0.0274-1.7257-0.2733-0.5583-0.246-1.0229-0.6286-1.386-1.144-0.3671-0.4724-0.6013-1.0151-0.7106-1.6281-0.1094-0.613-0.1172-1.4134-0.0313-2.4012 0.0664-0.8394 0.3319-1.6828 0.8043-2.53 0.4725-0.8472 1.0464-1.6047 1.7257-2.2723 0.6755-0.6677 1.347-1.1284 2.0147-1.3861 0.324-0.2147 0.5974-0.31623 0.8238-0.30451 0.2265 0.01171 0.5739 0.03901 1.0464 0.08201 0.4958 0.0664 0.8667 0.1601 1.1127 0.2889s0.4451 0.3006 0.5974 0.5154c0.324 0.324 0.5388 0.6403 0.6442 0.9526 0.1054 0.3124 0.1601 0.6169 0.1601 0.9176-0.0859 0.4724-0.4022 1.0463-0.9527 1.7257-0.5466 0.6754-1.2611 1.2298-2.1435 1.6593-0.4724 0.1523-0.9878 0.2148-1.5461 0.1952-0.5583-0.0195-1.0229-0.16-1.386-0.4177-0.41-0.1718-0.6755-0.1445-0.8043 0.082-0.1289 0.2264-0.246 0.7691-0.3553 1.6281-0.0859 0.816-0.0235 1.4133 0.1952 1.7882 0.2147 0.3748 0.5036 0.5973 0.8707 0.6598 0.4294 0.0859 0.7691 0.1445 1.0151 0.1796 0.246 0.0312 0.5544-0.0586 0.9175-0.2733 0.3436-0.2147 0.5583-0.3397 0.6442-0.3709 0.0859-0.0313 0.1562-0.0742 0.2109-0.1289l0.4021-0.4021c0.1484-0.1484 0.2694-0.2616 0.3553-0.3397 0.0859-0.0742 0.1835-0.1132 0.2889-0.1132s0.203 0.0468 0.2889 0.1444c0.0859 0.0977 0.1718 0.1679 0.2577 0.2109 0.2148 0 0.2616 0.1288 0.1445 0.3865s-0.3514 0.5661-0.695 0.9175c-0.3436 0.3553-0.7535 0.6833-1.2259 0.9839l0.0039-0.0078zm-0.0313-6.8326c0.2343-0.1093 0.4842-0.2616 0.7418-0.4685 0.2577-0.203 0.4764-0.4295 0.6599-0.6755 0.1835-0.2459 0.2733-0.4568 0.2733-0.6286 0-0.3006-0.1406-0.5544-0.4178-0.7574-0.2811-0.203-0.6989-0.2304-1.2572-0.082-0.2381 0.0664-0.5036 0.2187-0.8043 0.4685-0.3006 0.246-0.5856 0.5193-0.855 0.8238-0.2694 0.3007-0.4842 0.5701-0.6442 0.8043-0.1601 0.2382-0.2187 0.3749-0.1757 0.4178 0.0663 0.1093 0.2459 0.1874 0.5466 0.2421 0.3006 0.0546 0.6403 0.0703 1.0151 0.0468 0.3748-0.0195 0.6833-0.0859 0.9175-0.1952v0.0039z"/>
<path d="m25.616 21.439c-0.1718 0.043-0.3982 0.0586-0.6754 0.0469-0.2811-0.0117-0.5232-0.043-0.7262-0.0976-0.203-0.0547-0.3046-0.1132-0.3046-0.1757 0-0.1054-0.0546-0.1601-0.16-0.1601-0.1953-0.1718-0.3866-0.3006-0.5818-0.3865-0.1952-0.3007-0.2889-0.6286-0.2889-0.9839s0.0976-0.9175 0.2889-1.6906c0.0664-0.5388 0.2733-1.1674 0.6286-1.8858s0.7887-1.4563 1.3041-2.2099c0.5153-0.7535 1.058-1.4289 1.6281-2.0302 0.57-0.6013 1.0893-1.0425 1.5617-1.3236 0.3006-0.3006 0.6677-0.4607 1.0971-0.4841 0.4295-0.0195 0.8395 0.0742 1.226 0.2889 0.2147 0.1093 0.4295 0.2811 0.6442 0.5154 0.2148 0.2381 0.4178 0.4958 0.613 0.773 0.1952 0.2811 0.3553 0.5583 0.4841 0.8395 0.0664 0.2381 0.1016 0.4451 0.1133 0.6286s0.0117 0.4021 0 0.6598-0.0469 0.6442-0.1133 1.1596c-0.1093 0.3865-0.1991 0.8589-0.2733 1.4173-0.0742 0.5583-0.1132 1.0424-0.1132 1.4524-0.0429 0.4099 0.0039 0.6989 0.1445 0.8706 0.1405 0.1718 0.3475 0.1836 0.6286 0.0313 0.2577-0.1289 0.5036-0.1874 0.7418-0.1757 0.2343 0.0117 0.4256 0.082 0.5622 0.2108 0.1406 0.1289 0.2109 0.3241 0.2109 0.5818s-0.125 0.5192-0.371 0.7886c-0.2459 0.2694-0.5466 0.4959-0.9019 0.6755-0.3553 0.1835-0.6949 0.2733-1.0151 0.2733-0.2382 0-0.4607-0.1445-0.6754-0.4373-0.2148-0.2889-0.4022-0.6442-0.5623-1.062-0.16-0.4177-0.3045-0.8238-0.4334-1.2103l-0.1952-0.7418-1.386 1.3235c-0.2811 0.3007-0.5544 0.574-0.8238 0.8239-0.2694 0.2459-0.4334 0.4255-0.4998 0.5309-0.1093 0.1953-0.3045 0.3866-0.5973 0.5818-0.289 0.1952-0.6833 0.3865-1.1753 0.5817h-0.0039zm0.0937-1.9014c0.3671-0.2147 0.7848-0.531 1.2572-0.9526 0.4725-0.4178 0.9332-0.8824 1.3861-1.3861 0.4529-0.5036 0.8277-0.9722 1.1283-1.4016 0.367-0.4959 0.6443-0.9566 0.8395-1.3861s0.3318-0.8394 0.4177-1.2259c-0.0859-0.2382-0.2264-0.4881-0.4177-0.7575-0.1952-0.2694-0.367-0.4139-0.5154-0.4373-0.4724 0-0.9722 0.2968-1.4993 0.8863-0.5271 0.5896-1.0385 1.2299-1.5305 1.917-0.0859 0.1094-0.203 0.2812-0.3553 0.5154-0.1522 0.2382-0.2967 0.4568-0.4333 0.6599-0.1406 0.203-0.2304 0.3396-0.2734 0.4021-0.0663 0.0859-0.1874 0.328-0.3709 0.7262s-0.3592 0.7965-0.531 1.1908c-0.1717 0.3983-0.2576 0.6599-0.2576 0.7887 0 0.1289 0.0156 0.2694 0.0468 0.4178 0.0312 0.1522 0.1328 0.2459 0.3045 0.2889 0.1718 0.0429 0.4412-0.043 0.8043-0.2577v0.0117z"/>
<path d="m35.608 21.244c-0.1953-0.1483-0.328-0.3006-0.4022-0.4529-0.0742-0.1483-0.082-0.4412-0.0156-0.8706 0.0664-0.6013 0.1484-1.1323 0.2577-1.5969 0.1054-0.4607 0.2342-0.9956 0.3865-1.5969 0.043-0.2577 0.1679-0.6989 0.3709-1.3236 0.2031-0.6247 0.4568-1.3001 0.7575-2.0302 0.3006-0.7301 0.6012-1.4251 0.9019-2.081 0.3006-0.656 0.5583-1.144 0.773-1.4681 0.1718-0.12884 0.3827-0.1835 0.6286-0.16008 0.246 0.02343 0.4568 0.11713 0.6286 0.28892 0.2382 0.19524 0.2733 0.53104 0.1133 1.0151-0.1601 0.4841-0.4881 1.2416-0.9839 2.2723-0.2577 0.5818-0.4529 1.0152-0.5818 1.3041-0.1288 0.2889-0.1835 0.4607-0.1601 0.5153 0.0196 0.0547 0.1172 0.0274 0.289-0.0819 0.1288-0.2382 0.367-0.5115 0.7105-0.8239 0.3436-0.3123 0.7106-0.6168 1.0972-0.9175 0.3865-0.3006 0.7535-0.57 1.0971-0.8043 0.3436-0.2381 0.5817-0.3865 0.7106-0.4529 0.1718-0.1054 0.3709-0.1991 0.5973-0.2733 0.2265-0.0742 0.3827-0.1327 0.4686-0.1757 0.4958-0.2342 0.9995-0.324 1.5149-0.2577 0.5153 0.0664 0.8394 0.2577 0.9682 0.5818 0.0196 0.1718 0.1484 0.3436 0.3866 0.5154 0.0859 0 0.1405 0.0663 0.16 0.1952 0 0.1522-0.1132 0.242-0.3396 0.2733-0.2265 0.0312-0.5115 0.0585-0.8551 0.082-0.2811 0.0234-0.5271 0.0741-0.7418 0.16-0.2148 0.0859-0.4724 0.1953-0.7731 0.3241-0.816 0.4724-1.5969 0.9331-2.3387 1.386-0.7418 0.453-1.4563 1.0542-2.1435 1.8039-0.1522 0.1717-0.3006 0.3748-0.4529 0.6129-0.1522 0.2382-0.3123 0.4959-0.4841 0.7731-0.1093 0.1093-0.2147 0.3436-0.3241 0.7106-0.1093 0.367-0.1991 0.7145-0.2733 1.0463-0.0742 0.3319-0.1132 0.531-0.1132 0.5974-0.1288 0.41-0.2694 0.7106-0.4178 0.9019-0.2576 0.3436-0.4724 0.5154-0.6442 0.5154s-0.4295-0.1718-0.773-0.5154v0.0078z"/>
<path d="m49.179 21.634c-0.4724 0-0.8277-0.0196-1.062-0.0664-0.2382-0.043-0.4178-0.1054-0.5466-0.1952-0.1289-0.0859-0.2811-0.2031-0.4529-0.3553-0.0859-0.1718-0.1952-0.3553-0.3241-0.5466-0.1288-0.1953-0.2381-0.3319-0.324-0.4178-0.0859-0.3241-0.125-0.7418-0.1133-1.2572 0.0118-0.5154 0.0742-1.0737 0.1953-1.675 0.1171-0.6012 0.285-1.1596 0.4997-1.6749 0.0859-0.1718 0.1952-0.4295 0.3241-0.7731 0-0.1054 0.1327-0.367 0.4021-0.773 0.2694-0.4061 0.5701-0.8395 0.9019-1.2885 0.3319-0.4529 0.6052-0.773 0.8238-0.9683 0.1484-0.1717 0.3827-0.3553 0.6911-0.5466 0.3124-0.1952 0.5857-0.3318 0.8238-0.4177 0.2382-0.0859 0.4764-0.1601 0.7262-0.2265 0.246-0.0664 0.531-0.0976 0.8551-0.0976 0.3006 0 0.5817 0.0664 0.8394 0.1952 0.2577 0.1289 0.5037 0.3553 0.7418 0.6755 0.3866 0.3865 0.6052 0.7691 0.6599 1.144 0.0546 0.3748 0.039 0.7574-0.0469 1.1439-0.1093 0.4295-0.2459 0.7575-0.4177 0.9839-0.1718 0.2265-0.3671 0.328-0.5818 0.3046-0.2147-0.0196-0.4607-0.1835-0.7418-0.4842-0.0859-0.1718-0.1289-0.3162-0.1289-0.4334 0-0.1171 0.043-0.2967 0.1289-0.531 0.0859-0.3006 0.0859-0.6129 0-0.9331-0.0859-0.3241-0.2265-0.4841-0.4178-0.4841-0.2811 0-0.5856 0.1249-0.9175 0.3709s-0.6715 0.5544-1.0151 0.9175c-0.1523 0.1718-0.3592 0.4373-0.6286 0.7887-0.2694 0.3553-0.531 0.7418-0.7887 1.1596-0.2577 0.4177-0.4724 0.8238-0.6442 1.2103-0.2382 0.7106-0.4959 1.4954-0.7731 2.3543 0 0.0859 0.0273 0.1679 0.082 0.2421s0.082 0.1562 0.082 0.2421c0 0.2577 0.1484 0.4607 0.4529 0.613 0.2343 0.1522 0.5154 0.2303 0.8394 0.242 0.3241 0.0117 0.7184-0.0898 1.1948-0.3045 0.3435-0.1718 0.6715-0.3983 0.9839-0.6755 0.3123-0.2772 0.6403-0.5271 0.9839-0.7418 0.2342-0.1484 0.4255-0.2772 0.5661-0.3865 0.1405-0.1093 0.2108-0.1172 0.2108-0.0313s0.0313 0.1289 0.0976 0.1289c0.0664 0 0.1406-0.043 0.2265-0.1289 0.1288-0.1717 0.2694-0.285 0.4177-0.3396 0.1484-0.0547 0.2851-0.0742 0.4022-0.0664 0.1171 0.0117 0.1757 0.0468 0.1757 0.1132-0.043 0.1952 0 0.3553 0.1288 0.4842 0 0.0859-0.0273 0.1991-0.082 0.3396-0.0546 0.1406-0.1249 0.2538-0.2108 0.3397-0.1093 0.1523-0.2616 0.3241-0.4685 0.5154-0.203 0.1952-0.4802 0.4295-0.8238 0.7106-0.0859-0.0195-0.1679 0-0.2421 0.0664-0.0742 0.0663-0.1562 0.1405-0.2421 0.2264-0.1718 0.1523-0.3318 0.2616-0.4841 0.3397-0.1523 0.0742-0.2694 0.1132-0.3553 0.1132-0.1523 0.0859-0.2616 0.1406-0.3397 0.1601-0.0742 0.0234-0.1132 0.0742-0.1132 0.1601-0.2147 0.2147-0.4802 0.3592-0.7887 0.4372-0.3123 0.0742-0.7691 0.1133-1.3704 0.1133l-0.0117-0.0156z"/>
<path d="m67.522 21.665c-0.4099 0.1093-0.7105 0.1445-0.9019 0.1132-0.1913-0.0312-0.4529-0.2108-0.773-0.531-0.1952-0.3006-0.367-0.57-0.5154-0.8043-0.1523-0.2381-0.246-0.6559-0.2889-1.2572-0.0234-0.4099 0.0039-0.855 0.082-1.3392 0.0742-0.4841 0.1015-0.8316 0.082-1.0463 0.1718-0.7965 0.242-1.4329 0.2108-1.9171-0.0312-0.4841-0.1015-0.7262-0.2108-0.7262-0.2382-0.0429-0.6599 0.1874-1.2729 0.695-0.6129 0.5037-1.3118 1.1596-2.0966 1.9678-0.7848 0.8043-1.5617 1.6515-2.3387 2.53-0.4099 0.5583-0.6989 0.9722-0.8707 1.2416-0.1717 0.2694-0.3006 0.4021-0.3865 0.4021-0.1523 0-0.3553-0.0546-0.613-0.16-0.2577-0.1055-0.4841-0.2421-0.6754-0.4022-0.1952-0.1601-0.3007-0.3045-0.3241-0.4373 0-0.0859 0.0547-0.3162 0.1601-0.6949 0.1054-0.3749 0.2421-0.8121 0.4021-1.3041 0.1601-0.4958 0.3046-0.9566 0.4334-1.386 0.1289-0.4295 0.2265-0.7301 0.289-0.9019 0.1952-0.5584 0.4255-1.2416 0.691-2.0459 0.2694-0.8043 0.5115-1.5188 0.7262-2.1435 0.0859-0.2772 0.2382-0.6833 0.4529-1.2103 0.2148-0.52713 0.4295-1.0581 0.6442-1.5969 0.2148-0.5388 0.3671-0.93704 0.4529-1.1947 0.0664-0.17179 0.1836-0.47633 0.3553-0.91752 0.1718-0.44119 0.3592-0.92923 0.5623-1.468 0.203-0.5388 0.3982-1.0386 0.5817-1.4993s0.3046-0.80039 0.3709-1.0151c-0.0234-0.19522-0.0039-0.37091 0.0469-0.53099 0.0546-0.16008 0.1132-0.28502 0.1757-0.37091 0.0859 0 0.2342-0.01172 0.4529-0.03124 0-0.04295 0.0859 0 0.2577 0.12885 0.1718 0.12884 0.3396 0.28501 0.4997 0.46852 0.1601 0.1835 0.2421 0.33967 0.2421 0.46852 0.1054 0.28111 0.1171 0.64031 0.0312 1.0815s-0.3123 1.101-0.6754 1.9834c-0.2382 0.34358-0.4685 0.85895-0.695 1.5461-0.2264 0.68716-0.4451 1.2689-0.6598 1.7413-0.0859 0.15227-0.2421 0.47243-0.4685 0.96829-0.2265 0.4958-0.4842 1.0737-0.7731 1.7413-0.2889 0.6677-0.5622 1.3392-0.8238 2.0147-0.2577 0.6754-0.4607 1.2845-0.613 1.8233-0.2147 0.5154-0.2889 0.859-0.2265 1.0307 0.0664 0.1718 0.3241-0.0195 0.7731-0.5817 0.6013-0.6442 1.2377-1.3001 1.9014-1.9678 0.6677-0.6676 1.2963-1.2299 1.8858-1.6906 0.5896-0.4607 1.0698-0.6715 1.4329-0.6286 0.1952 0.043 0.4022 0.1718 0.6286 0.3866 0.2265 0.2147 0.4451 0.4607 0.6598 0.7418 0.2148 0.2811 0.367 0.5466 0.4529 0.8043 0.0859 0.324 0.1445 0.6012 0.1757 0.8394 0.0313 0.2382 0.0391 0.5857 0.0157 1.0464-0.0235 0.4607-0.0742 1.1869-0.1601 2.1747-0.1289 0.7301-0.2148 1.2533-0.2577 1.5617-0.043 0.3124-0.0273 0.531 0.0468 0.6599 0.0742 0.1288 0.1992 0.2694 0.371 0.4177 0.324 0.2577 0.488 0.4842 0.4997 0.6755 0.0117 0.1952-0.1327 0.3748-0.4334 0.5466h0.0078z"/>
</g>
<defs>
<clipPath id="a">
<rect width="194.28" height="24" fill="#000"/>
</clipPath>
</defs>
</svg>
